<svg width="287" height="88" viewBox="0 0 287 88" fill="none" xmlns="http://www.w3.org/2000/svg">
<g filter="url(#filter0_d_1_314)">
<path d="M134 0C198 2.96831e-05 99 0 176 0C238 0 216 88 276 88C338 88 -79.9742 88 20 88C94 88 72 -2.96831e-05 134 0Z" fill="url(#paint0_linear_1_314)"/>
<path d="M134 0.25L145.03 0.250006L145.031 0.250006L145.04 0.250006L145.075 0.250006L145.215 0.250007L145.748 0.250008L145.953 0.250004L150.125 0.250011L155.111 0.250013L156.592 0.250013L156.861 0.250013L156.868 0.250013L156.869 0.250013L156.869 0.250013C156.869 0.250009 156.869 0.250006 156.869 0.250003L176 0.25C191.429 0.25 201.613 5.72008 209.16 13.9193C216.721 22.1337 221.643 33.0937 226.521 44.1013L226.769 44.661C231.557 55.4655 236.345 66.2719 243.595 74.4162C249.682 81.2551 257.502 86.2148 268.497 87.75H268.258H267.789H267.313H266.831H266.342H265.846H265.344H264.835H264.319H263.797H263.269H262.734H262.193H261.645H261.092H260.532H259.966H259.393H258.815H258.231H257.64H257.044H256.442H255.834H255.22H254.601H253.975H253.344H252.708H252.066H251.418H250.765H250.106H249.442H248.772H248.097H247.417H246.732H246.042H245.346H244.645H243.939H243.229H242.513H241.792H241.067H240.336H239.601H238.861H238.117H237.367H236.614H235.855H235.092H234.325H233.553H232.777H231.996H231.211H230.422H229.629H228.831H228.03H227.224H226.415H225.601H224.783H223.962H223.136H222.307H221.474H220.638H219.798H218.954H218.106H217.255H216.401H215.543H214.681H213.817H212.948H212.077H211.203H210.325H209.444H208.56H207.673H206.783H205.89H204.994H204.096H203.194H202.29H201.383H200.473H199.561H198.646H197.728H196.808H195.886H194.961H194.034H193.104H192.172H191.238H190.301H189.363H188.422H187.48H186.535H185.588H184.64H183.689H182.737H181.783H180.827H179.869H178.91H177.949H176.987H176.023H175.057H174.09H173.122H172.153H171.182H170.209H169.236H168.261H167.286H166.309H165.331H164.352H163.373H162.392H161.41H160.428H159.445H158.461H157.477H156.491H155.506H154.519H153.532H152.545H151.558H150.57H149.581H148.593H147.604H146.615H145.625H144.636H143.647H142.657H141.668H140.679H139.69H138.701H137.712H136.723H135.735H134.747H133.76H29.2742C42.8874 86.2168 52.7678 81.2679 60.4783 74.4371C69.8293 66.153 75.9725 55.114 81.7216 44.1158C82.2294 43.1442 82.7342 42.1731 83.2378 41.2042C88.4428 31.1895 93.5228 21.4155 100.619 13.9219C108.386 5.71971 118.571 0.249993 134 0.25Z" stroke="#7582F4" stroke-opacity="0.5" stroke-width="0.5"/>
</g>
<defs>
<filter id="filter0_d_1_314" x="0.47522" y="0" width="285.832" height="96" filterUnits="userSpaceOnUse" color-interpolation-filters="sRGB">
<feFlood flood-opacity="0" result="BackgroundImageFix"/>
<feColorMatrix in="SourceAlpha" type="matrix" values="0 0 0 0 0 0 0 0 0 0 0 0 0 0 0 0 0 0 127 0" result="hardAlpha"/>
<feOffset dy="4"/>
<feGaussianBlur stdDeviation="2"/>
<feComposite in2="hardAlpha" operator="out"/>
<feColorMatrix type="matrix" values="0 0 0 0 0.458824 0 0 0 0 0.509804 0 0 0 0 0.956863 0 0 0 1 0"/>
<feBlend mode="normal" in2="BackgroundImageFix" result="effect1_dropShadow_1_314"/>
<feBlend mode="normal" in="SourceGraphic" in2="effect1_dropShadow_1_314" result="shape"/>
</filter>
<linearGradient id="paint0_linear_1_314" x1="143.391" y1="0" x2="143.391" y2="88" gradientUnits="userSpaceOnUse">
<stop stop-color="#262C51"/>
<stop offset="1" stop-color="#3E3F74"/>
</linearGradient>
</defs>
</svg>
