<svg width="124" height="106" viewBox="0 0 124 106" fill="none" xmlns="http://www.w3.org/2000/svg">
<g filter="url(#filter0_ddi_1_315)">
<g filter="url(#filter1_f_1_315)">
<circle cx="62" cy="62" r="32" fill="url(#paint0_linear_1_315)" fill-opacity="0.4"/>
</g>
<g filter="url(#filter2_f_1_315)">
<circle cx="62" cy="62" r="29" fill="url(#paint1_linear_1_315)"/>
<circle cx="62" cy="62" r="28" stroke="url(#paint2_linear_1_315)" stroke-width="2"/>
</g>
<mask id="mask0_1_315" style="mask-type:alpha" maskUnits="userSpaceOnUse" x="33" y="33" width="58" height="58">
<circle cx="62" cy="62" r="29" fill="url(#paint3_linear_1_315)"/>
</mask>
<g mask="url(#mask0_1_315)">
<g filter="url(#filter3_f_1_315)">
<path d="M91 62C91 78.0163 78.0163 91 62 91C45.9837 91 33 78.0163 33 62C33 45.9837 45.9837 33 62 33C78.0163 33 91 45.9837 91 62ZM35.9 62C35.9 76.4146 47.5854 88.1 62 88.1C76.4146 88.1 88.1 76.4146 88.1 62C88.1 47.5854 76.4146 35.9 62 35.9C47.5854 35.9 35.9 47.5854 35.9 62Z" fill="url(#paint4_linear_1_315)"/>
</g>
<g filter="url(#filter4_f_1_315)">
<circle cx="62" cy="62" r="32" fill="url(#paint5_linear_1_315)" fill-opacity="0.4"/>
</g>
<g filter="url(#filter5_ddi_1_315)">
<circle cx="62" cy="62" r="29" fill="url(#paint6_linear_1_315)"/>
<circle cx="62" cy="62" r="28.9" stroke="url(#paint7_linear_1_315)" stroke-width="0.2"/>
</g>
<mask id="mask1_1_315" style="mask-type:alpha" maskUnits="userSpaceOnUse" x="33" y="33" width="58" height="58">
<circle cx="62" cy="62" r="29" fill="url(#paint8_linear_1_315)"/>
</mask>
<g mask="url(#mask1_1_315)">
<g filter="url(#filter6_f_1_315)">
<path d="M91 62C91 78.0163 78.0163 91 62 91C45.9837 91 33 78.0163 33 62C33 45.9837 45.9837 33 62 33C78.0163 33 91 45.9837 91 62ZM35.9 62C35.9 76.4146 47.5854 88.1 62 88.1C76.4146 88.1 88.1 76.4146 88.1 62C88.1 47.5854 76.4146 35.9 62 35.9C47.5854 35.9 35.9 47.5854 35.9 62Z" fill="url(#paint9_linear_1_315)"/>
</g>
<path d="M50.2692 62.1289C50.2692 63.2773 51.1989 64.207 52.3474 64.207H59.9352V71.7949C59.9352 72.9297 60.8513 73.873 61.9997 73.873C63.1481 73.873 64.0778 72.9297 64.0778 71.7949V64.207H71.6657C72.8005 64.207 73.7302 63.2773 73.7302 62.1289C73.7302 60.9941 72.8005 60.0645 71.6657 60.0645H64.0778V52.4766C64.0778 51.3418 63.1481 50.3984 61.9997 50.3984C60.8513 50.3984 59.9352 51.3418 59.9352 52.4766V60.0645H52.3474C51.1989 60.0645 50.2692 60.9941 50.2692 62.1289Z" fill="#48319D"/>
</g>
</g>
</g>
<defs>
<filter id="filter0_ddi_1_315" x="0" y="0" width="124" height="124" filterUnits="userSpaceOnUse" color-interpolation-filters="sRGB">
<feFlood flood-opacity="0" result="BackgroundImageFix"/>
<feColorMatrix in="SourceAlpha" type="matrix" values="0 0 0 0 0 0 0 0 0 0 0 0 0 0 0 0 0 0 127 0" result="hardAlpha"/>
<feOffset dx="10" dy="10"/>
<feGaussianBlur stdDeviation="10"/>
<feComposite in2="hardAlpha" operator="out"/>
<feColorMatrix type="matrix" values="0 0 0 0 0.0509804 0 0 0 0 0.0784314 0 0 0 0 0.192157 0 0 0 0.5 0"/>
<feBlend mode="normal" in2="BackgroundImageFix" result="effect1_dropShadow_1_315"/>
<feColorMatrix in="SourceAlpha" type="matrix" values="0 0 0 0 0 0 0 0 0 0 0 0 0 0 0 0 0 0 127 0" result="hardAlpha"/>
<feOffset dx="-10" dy="-10"/>
<feGaussianBlur stdDeviation="10"/>
<feComposite in2="hardAlpha" operator="out"/>
<feColorMatrix type="matrix" values="0 0 0 0 1 0 0 0 0 1 0 0 0 0 1 0 0 0 0.5 0"/>
<feBlend mode="overlay" in2="effect1_dropShadow_1_315" result="effect2_dropShadow_1_315"/>
<feBlend mode="normal" in="SourceGraphic" in2="effect2_dropShadow_1_315" result="shape"/>
<feColorMatrix in="SourceAlpha" type="matrix" values="0 0 0 0 0 0 0 0 0 0 0 0 0 0 0 0 0 0 127 0" result="hardAlpha"/>
<feOffset dx="1" dy="1"/>
<feGaussianBlur stdDeviation="0.25"/>
<feComposite in2="hardAlpha" operator="arithmetic" k2="-1" k3="1"/>
<feColorMatrix type="matrix" values="0 0 0 0 1 0 0 0 0 1 0 0 0 0 1 0 0 0 1 0"/>
<feBlend mode="normal" in2="shape" result="effect3_innerShadow_1_315"/>
</filter>
<filter id="filter1_f_1_315" x="29" y="29" width="66" height="66" filterUnits="userSpaceOnUse" color-interpolation-filters="sRGB">
<feFlood flood-opacity="0" result="BackgroundImageFix"/>
<feBlend mode="normal" in="SourceGraphic" in2="BackgroundImageFix" result="shape"/>
<feGaussianBlur stdDeviation="0.5" result="effect1_foregroundBlur_1_315"/>
</filter>
<filter id="filter2_f_1_315" x="32" y="32" width="60" height="60" filterUnits="userSpaceOnUse" color-interpolation-filters="sRGB">
<feFlood flood-opacity="0" result="BackgroundImageFix"/>
<feBlend mode="normal" in="SourceGraphic" in2="BackgroundImageFix" result="shape"/>
<feGaussianBlur stdDeviation="0.5" result="effect1_foregroundBlur_1_315"/>
</filter>
<filter id="filter3_f_1_315" x="31" y="31" width="62" height="62" filterUnits="userSpaceOnUse" color-interpolation-filters="sRGB">
<feFlood flood-opacity="0" result="BackgroundImageFix"/>
<feBlend mode="normal" in="SourceGraphic" in2="BackgroundImageFix" result="shape"/>
<feGaussianBlur stdDeviation="1" result="effect1_foregroundBlur_1_315"/>
</filter>
<filter id="filter4_f_1_315" x="29" y="29" width="66" height="66" filterUnits="userSpaceOnUse" color-interpolation-filters="sRGB">
<feFlood flood-opacity="0" result="BackgroundImageFix"/>
<feBlend mode="normal" in="SourceGraphic" in2="BackgroundImageFix" result="shape"/>
<feGaussianBlur stdDeviation="0.5" result="effect1_foregroundBlur_1_315"/>
</filter>
<filter id="filter5_ddi_1_315" x="3" y="3" width="118" height="118" filterUnits="userSpaceOnUse" color-interpolation-filters="sRGB">
<feFlood flood-opacity="0" result="BackgroundImageFix"/>
<feColorMatrix in="SourceAlpha" type="matrix" values="0 0 0 0 0 0 0 0 0 0 0 0 0 0 0 0 0 0 127 0" result="hardAlpha"/>
<feOffset dx="10" dy="10"/>
<feGaussianBlur stdDeviation="10"/>
<feComposite in2="hardAlpha" operator="out"/>
<feColorMatrix type="matrix" values="0 0 0 0 0.0519097 0 0 0 0 0.0787861 0 0 0 0 0.191667 0 0 0 0.5 0"/>
<feBlend mode="normal" in2="BackgroundImageFix" result="effect1_dropShadow_1_315"/>
<feColorMatrix in="SourceAlpha" type="matrix" values="0 0 0 0 0 0 0 0 0 0 0 0 0 0 0 0 0 0 127 0" result="hardAlpha"/>
<feOffset dx="-10" dy="-10"/>
<feGaussianBlur stdDeviation="10"/>
<feComposite in2="hardAlpha" operator="out"/>
<feColorMatrix type="matrix" values="0 0 0 0 1 0 0 0 0 1 0 0 0 0 1 0 0 0 0.5 0"/>
<feBlend mode="overlay" in2="effect1_dropShadow_1_315" result="effect2_dropShadow_1_315"/>
<feBlend mode="normal" in="SourceGraphic" in2="effect2_dropShadow_1_315" result="shape"/>
<feColorMatrix in="SourceAlpha" type="matrix" values="0 0 0 0 0 0 0 0 0 0 0 0 0 0 0 0 0 0 127 0" result="hardAlpha"/>
<feOffset dx="1" dy="1"/>
<feGaussianBlur stdDeviation="0.25"/>
<feComposite in2="hardAlpha" operator="arithmetic" k2="-1" k3="1"/>
<feColorMatrix type="matrix" values="0 0 0 0 1 0 0 0 0 1 0 0 0 0 1 0 0 0 1 0"/>
<feBlend mode="normal" in2="shape" result="effect3_innerShadow_1_315"/>
</filter>
<filter id="filter6_f_1_315" x="31" y="31" width="62" height="62" filterUnits="userSpaceOnUse" color-interpolation-filters="sRGB">
<feFlood flood-opacity="0" result="BackgroundImageFix"/>
<feBlend mode="normal" in="SourceGraphic" in2="BackgroundImageFix" result="shape"/>
<feGaussianBlur stdDeviation="1" result="effect1_foregroundBlur_1_315"/>
</filter>
<linearGradient id="paint0_linear_1_315" x1="37" y1="39" x2="84" y2="87" gradientUnits="userSpaceOnUse">
<stop/>
<stop offset="1" stop-color="white" stop-opacity="0.7"/>
</linearGradient>
<linearGradient id="paint1_linear_1_315" x1="39.3438" y1="41.1562" x2="81.9375" y2="84.6562" gradientUnits="userSpaceOnUse">
<stop stop-color="#F5F5F9"/>
<stop offset="1" stop-color="#DADFE7" stop-opacity="0.7"/>
</linearGradient>
<linearGradient id="paint2_linear_1_315" x1="62" y1="33" x2="62" y2="91" gradientUnits="userSpaceOnUse">
<stop stop-color="white"/>
<stop offset="1" stop-color="#AEAEAE" stop-opacity="0"/>
</linearGradient>
<linearGradient id="paint3_linear_1_315" x1="39.3438" y1="41.1562" x2="81.9375" y2="84.6562" gradientUnits="userSpaceOnUse">
<stop stop-color="#F5F5F9"/>
<stop offset="1" stop-color="#DADFE7" stop-opacity="0.7"/>
</linearGradient>
<linearGradient id="paint4_linear_1_315" x1="39.3438" y1="41.1562" x2="81.9375" y2="84.6562" gradientUnits="userSpaceOnUse">
<stop stop-color="white" stop-opacity="0"/>
<stop offset="1" stop-color="#BBBFC7"/>
</linearGradient>
<linearGradient id="paint5_linear_1_315" x1="41.5" y1="43" x2="80.5" y2="89" gradientUnits="userSpaceOnUse">
<stop/>
<stop offset="1" stop-color="white" stop-opacity="0.76"/>
</linearGradient>
<linearGradient id="paint6_linear_1_315" x1="47" y1="41" x2="78.5" y2="85.8333" gradientUnits="userSpaceOnUse">
<stop stop-color="#F5F5F9"/>
<stop offset="1" stop-color="#DADFE7"/>
</linearGradient>
<linearGradient id="paint7_linear_1_315" x1="41.8333" y1="42.8333" x2="76.1667" y2="88.5" gradientUnits="userSpaceOnUse">
<stop stop-color="white"/>
<stop offset="1" stop-color="#AEAEAE"/>
</linearGradient>
<linearGradient id="paint8_linear_1_315" x1="47" y1="41" x2="78.5" y2="85.8333" gradientUnits="userSpaceOnUse">
<stop stop-color="#F5F5F9"/>
<stop offset="1" stop-color="#DADFE7"/>
</linearGradient>
<linearGradient id="paint9_linear_1_315" x1="37.7911" y1="43.2008" x2="62" y2="91" gradientUnits="userSpaceOnUse">
<stop stop-color="white" stop-opacity="0"/>
<stop offset="1" stop-color="#BBBFC7"/>
</linearGradient>
</defs>
</svg>
